<mxfile host="65bd71144e">
    <diagram name="Page-1" id="L1jx9lQ5hM_rV0Q-gD6z">
        <mxGraphModel dx="1243" dy="832" grid="1" gridSize="10" guides="1" tooltips="1" connect="1" arrows="1" fold="1" page="1" pageScale="1" pageWidth="850" pageHeight="1100" math="0" shadow="0">
            <root>
                <mxCell id="0"/>
                <mxCell id="1" parent="0"/>
                <mxCell id="obrbIRu9S_ZbPu-9y-59-1" value="User_Data" style="rounded=1;arcSize=10;whiteSpace=wrap;html=1;align=center;" parent="1" vertex="1">
                    <mxGeometry x="80" y="230" width="100" height="40" as="geometry"/>
                </mxCell>
                <mxCell id="obrbIRu9S_ZbPu-9y-59-2" value="&lt;u&gt;enrollmentNo&lt;/u&gt;" style="ellipse;whiteSpace=wrap;html=1;align=center;" parent="1" vertex="1">
                    <mxGeometry y="140" width="100" height="40" as="geometry"/>
                </mxCell>
                <mxCell id="obrbIRu9S_ZbPu-9y-59-3" value="pw" style="ellipse;whiteSpace=wrap;html=1;align=center;" parent="1" vertex="1">
                    <mxGeometry x="70" y="70" width="100" height="40" as="geometry"/>
                </mxCell>
                <mxCell id="obrbIRu9S_ZbPu-9y-59-4" value="Assignment" style="rounded=1;arcSize=10;whiteSpace=wrap;html=1;align=center;" parent="1" vertex="1">
                    <mxGeometry x="660" y="370" width="100" height="40" as="geometry"/>
                </mxCell>
                <mxCell id="obrbIRu9S_ZbPu-9y-59-5" value="&lt;u&gt;url&lt;/u&gt;" style="ellipse;whiteSpace=wrap;html=1;align=center;" parent="1" vertex="1">
                    <mxGeometry x="580" y="110" width="100" height="40" as="geometry"/>
                </mxCell>
                <mxCell id="obrbIRu9S_ZbPu-9y-59-6" value="dueDate" style="ellipse;whiteSpace=wrap;html=1;align=center;" parent="1" vertex="1">
                    <mxGeometry x="640" y="50" width="100" height="40" as="geometry"/>
                </mxCell>
                <mxCell id="obrbIRu9S_ZbPu-9y-59-7" value="" style="endArrow=none;html=1;rounded=0;exitX=0.5;exitY=1;exitDx=0;exitDy=0;entryX=0.5;entryY=0;entryDx=0;entryDy=0;" parent="1" source="obrbIRu9S_ZbPu-9y-59-2" target="obrbIRu9S_ZbPu-9y-59-1" edge="1">
                    <mxGeometry relative="1" as="geometry">
                        <mxPoint x="90" y="160" as="sourcePoint"/>
                        <mxPoint x="250" y="160" as="targetPoint"/>
                    </mxGeometry>
                </mxCell>
                <mxCell id="obrbIRu9S_ZbPu-9y-59-9" value="" style="endArrow=none;html=1;rounded=0;exitX=0.5;exitY=0;exitDx=0;exitDy=0;entryX=0.5;entryY=1;entryDx=0;entryDy=0;" parent="1" source="obrbIRu9S_ZbPu-9y-59-1" target="obrbIRu9S_ZbPu-9y-59-3" edge="1">
                    <mxGeometry relative="1" as="geometry">
                        <mxPoint x="210" y="160" as="sourcePoint"/>
                        <mxPoint x="370" y="160" as="targetPoint"/>
                    </mxGeometry>
                </mxCell>
                <mxCell id="obrbIRu9S_ZbPu-9y-59-10" value="&lt;u&gt;email&lt;/u&gt;" style="ellipse;whiteSpace=wrap;html=1;align=center;" parent="1" vertex="1">
                    <mxGeometry x="170" y="120" width="100" height="40" as="geometry"/>
                </mxCell>
                <mxCell id="obrbIRu9S_ZbPu-9y-59-11" value="" style="endArrow=none;html=1;rounded=0;exitX=0.5;exitY=0;exitDx=0;exitDy=0;entryX=0.5;entryY=1;entryDx=0;entryDy=0;" parent="1" source="obrbIRu9S_ZbPu-9y-59-1" target="obrbIRu9S_ZbPu-9y-59-10" edge="1">
                    <mxGeometry relative="1" as="geometry">
                        <mxPoint x="300" y="180" as="sourcePoint"/>
                        <mxPoint x="460" y="180" as="targetPoint"/>
                    </mxGeometry>
                </mxCell>
                <mxCell id="obrbIRu9S_ZbPu-9y-59-12" value="Course" style="rounded=1;arcSize=10;whiteSpace=wrap;html=1;align=center;" parent="1" vertex="1">
                    <mxGeometry x="375" y="720" width="100" height="40" as="geometry"/>
                </mxCell>
                <mxCell id="obrbIRu9S_ZbPu-9y-59-13" value="&lt;u&gt;C_name&lt;/u&gt;" style="ellipse;whiteSpace=wrap;html=1;align=center;" parent="1" vertex="1">
                    <mxGeometry x="370" y="890" width="110" height="40" as="geometry"/>
                </mxCell>
                <mxCell id="obrbIRu9S_ZbPu-9y-59-14" value="&lt;u&gt;url&lt;/u&gt;" style="ellipse;whiteSpace=wrap;html=1;align=center;" parent="1" vertex="1">
                    <mxGeometry x="270" y="850" width="100" height="40" as="geometry"/>
                </mxCell>
                <mxCell id="obrbIRu9S_ZbPu-9y-59-15" value="dueTime" style="ellipse;whiteSpace=wrap;html=1;align=center;" parent="1" vertex="1">
                    <mxGeometry x="700" y="110" width="100" height="40" as="geometry"/>
                </mxCell>
                <mxCell id="obrbIRu9S_ZbPu-9y-59-16" value="" style="endArrow=none;html=1;rounded=0;exitX=0.5;exitY=1;exitDx=0;exitDy=0;entryX=0.5;entryY=0;entryDx=0;entryDy=0;" parent="1" source="obrbIRu9S_ZbPu-9y-59-5" target="obrbIRu9S_ZbPu-9y-59-4" edge="1">
                    <mxGeometry relative="1" as="geometry">
                        <mxPoint x="540" y="150" as="sourcePoint"/>
                        <mxPoint x="700" y="150" as="targetPoint"/>
                    </mxGeometry>
                </mxCell>
                <mxCell id="obrbIRu9S_ZbPu-9y-59-17" value="" style="endArrow=none;html=1;rounded=0;exitX=0.5;exitY=1;exitDx=0;exitDy=0;entryX=0.5;entryY=0;entryDx=0;entryDy=0;" parent="1" source="obrbIRu9S_ZbPu-9y-59-6" target="obrbIRu9S_ZbPu-9y-59-4" edge="1">
                    <mxGeometry relative="1" as="geometry">
                        <mxPoint x="600" y="100" as="sourcePoint"/>
                        <mxPoint x="720" y="160" as="targetPoint"/>
                    </mxGeometry>
                </mxCell>
                <mxCell id="obrbIRu9S_ZbPu-9y-59-18" value="" style="endArrow=none;html=1;rounded=0;exitX=0.5;exitY=0;exitDx=0;exitDy=0;entryX=0.5;entryY=1;entryDx=0;entryDy=0;" parent="1" source="obrbIRu9S_ZbPu-9y-59-4" target="obrbIRu9S_ZbPu-9y-59-15" edge="1">
                    <mxGeometry relative="1" as="geometry">
                        <mxPoint x="700" y="170" as="sourcePoint"/>
                        <mxPoint x="820" y="230" as="targetPoint"/>
                    </mxGeometry>
                </mxCell>
                <mxCell id="obrbIRu9S_ZbPu-9y-59-19" value="course_ID" style="ellipse;whiteSpace=wrap;html=1;align=center;" parent="1" vertex="1">
                    <mxGeometry x="540" y="170" width="100" height="40" as="geometry"/>
                </mxCell>
                <mxCell id="obrbIRu9S_ZbPu-9y-59-21" value="" style="endArrow=none;html=1;rounded=0;exitX=0.5;exitY=1;exitDx=0;exitDy=0;entryX=0.5;entryY=0;entryDx=0;entryDy=0;" parent="1" source="obrbIRu9S_ZbPu-9y-59-19" target="obrbIRu9S_ZbPu-9y-59-4" edge="1">
                    <mxGeometry relative="1" as="geometry">
                        <mxPoint x="480" y="180" as="sourcePoint"/>
                        <mxPoint x="640" y="180" as="targetPoint"/>
                    </mxGeometry>
                </mxCell>
                <mxCell id="obrbIRu9S_ZbPu-9y-59-24" value="contains" style="shape=rhombus;perimeter=rhombusPerimeter;whiteSpace=wrap;html=1;align=center;" parent="1" vertex="1">
                    <mxGeometry x="570" y="530" width="110" height="60" as="geometry"/>
                </mxCell>
                <mxCell id="obrbIRu9S_ZbPu-9y-59-25" value="is_Done" style="ellipse;whiteSpace=wrap;html=1;align=center;" parent="1" vertex="1">
                    <mxGeometry x="730" y="180" width="100" height="40" as="geometry"/>
                </mxCell>
                <mxCell id="obrbIRu9S_ZbPu-9y-59-26" value="" style="endArrow=none;html=1;rounded=0;exitX=0.5;exitY=0;exitDx=0;exitDy=0;entryX=0.5;entryY=1;entryDx=0;entryDy=0;" parent="1" source="obrbIRu9S_ZbPu-9y-59-4" target="obrbIRu9S_ZbPu-9y-59-25" edge="1">
                    <mxGeometry relative="1" as="geometry">
                        <mxPoint x="660" y="200" as="sourcePoint"/>
                        <mxPoint x="750" y="120" as="targetPoint"/>
                    </mxGeometry>
                </mxCell>
                <mxCell id="obrbIRu9S_ZbPu-9y-59-27" value="title" style="ellipse;whiteSpace=wrap;html=1;align=center;" parent="1" vertex="1">
                    <mxGeometry x="530" y="230" width="100" height="40" as="geometry"/>
                </mxCell>
                <mxCell id="obrbIRu9S_ZbPu-9y-59-28" value="" style="endArrow=none;html=1;rounded=0;exitX=0.5;exitY=1;exitDx=0;exitDy=0;entryX=0.5;entryY=0;entryDx=0;entryDy=0;" parent="1" source="obrbIRu9S_ZbPu-9y-59-27" target="obrbIRu9S_ZbPu-9y-59-4" edge="1">
                    <mxGeometry relative="1" as="geometry">
                        <mxPoint x="670" y="210" as="sourcePoint"/>
                        <mxPoint x="760" y="130" as="targetPoint"/>
                    </mxGeometry>
                </mxCell>
                <mxCell id="obrbIRu9S_ZbPu-9y-59-29" value="" style="endArrow=none;html=1;rounded=0;entryX=0.5;entryY=1;entryDx=0;entryDy=0;exitX=0.5;exitY=0;exitDx=0;exitDy=0;" parent="1" source="obrbIRu9S_ZbPu-9y-59-12" target="obrbIRu9S_ZbPu-9y-59-24" edge="1">
                    <mxGeometry relative="1" as="geometry">
                        <mxPoint x="460" y="510" as="sourcePoint"/>
                        <mxPoint x="620" y="510" as="targetPoint"/>
                    </mxGeometry>
                </mxCell>
                <mxCell id="obrbIRu9S_ZbPu-9y-59-30" value="1" style="resizable=0;html=1;whiteSpace=wrap;align=right;verticalAlign=bottom;" parent="obrbIRu9S_ZbPu-9y-59-29" connectable="0" vertex="1">
                    <mxGeometry x="1" relative="1" as="geometry"/>
                </mxCell>
                <mxCell id="obrbIRu9S_ZbPu-9y-59-31" value="" style="endArrow=none;html=1;rounded=0;entryX=0.5;entryY=0;entryDx=0;entryDy=0;exitX=0.5;exitY=1;exitDx=0;exitDy=0;" parent="1" source="obrbIRu9S_ZbPu-9y-59-4" target="obrbIRu9S_ZbPu-9y-59-24" edge="1">
                    <mxGeometry relative="1" as="geometry">
                        <mxPoint x="470" y="360" as="sourcePoint"/>
                        <mxPoint x="630" y="360" as="targetPoint"/>
                    </mxGeometry>
                </mxCell>
                <mxCell id="obrbIRu9S_ZbPu-9y-59-32" value="N" style="resizable=0;html=1;whiteSpace=wrap;align=right;verticalAlign=bottom;" parent="obrbIRu9S_ZbPu-9y-59-31" connectable="0" vertex="1">
                    <mxGeometry x="1" relative="1" as="geometry"/>
                </mxCell>
                <mxCell id="obrbIRu9S_ZbPu-9y-59-34" value="" style="endArrow=none;html=1;rounded=0;exitX=0.5;exitY=0;exitDx=0;exitDy=0;entryX=0.5;entryY=1;entryDx=0;entryDy=0;" parent="1" source="obrbIRu9S_ZbPu-9y-59-14" target="obrbIRu9S_ZbPu-9y-59-12" edge="1">
                    <mxGeometry relative="1" as="geometry">
                        <mxPoint x="290" y="600" as="sourcePoint"/>
                        <mxPoint x="450" y="600" as="targetPoint"/>
                    </mxGeometry>
                </mxCell>
                <mxCell id="obrbIRu9S_ZbPu-9y-59-35" value="" style="endArrow=none;html=1;rounded=0;exitX=0.5;exitY=0;exitDx=0;exitDy=0;entryX=0.5;entryY=1;entryDx=0;entryDy=0;" parent="1" source="obrbIRu9S_ZbPu-9y-59-13" target="obrbIRu9S_ZbPu-9y-59-12" edge="1">
                    <mxGeometry relative="1" as="geometry">
                        <mxPoint x="430" y="620" as="sourcePoint"/>
                        <mxPoint x="590" y="620" as="targetPoint"/>
                    </mxGeometry>
                </mxCell>
                <mxCell id="obrbIRu9S_ZbPu-9y-59-37" value="" style="endArrow=none;html=1;rounded=0;entryX=0.5;entryY=0;entryDx=0;entryDy=0;exitX=0.5;exitY=1;exitDx=0;exitDy=0;" parent="1" source="obrbIRu9S_ZbPu-9y-59-1" target="2" edge="1">
                    <mxGeometry relative="1" as="geometry">
                        <mxPoint x="40" y="300" as="sourcePoint"/>
                        <mxPoint x="230" y="340" as="targetPoint"/>
                    </mxGeometry>
                </mxCell>
                <mxCell id="obrbIRu9S_ZbPu-9y-59-38" value="1" style="resizable=0;html=1;whiteSpace=wrap;align=right;verticalAlign=bottom;" parent="obrbIRu9S_ZbPu-9y-59-37" connectable="0" vertex="1">
                    <mxGeometry x="1" relative="1" as="geometry"/>
                </mxCell>
                <mxCell id="obrbIRu9S_ZbPu-9y-59-41" value="" style="endArrow=none;html=1;rounded=0;exitX=0.5;exitY=0;exitDx=0;exitDy=0;entryX=0.5;entryY=1;entryDx=0;entryDy=0;" parent="1" target="2" edge="1" source="obrbIRu9S_ZbPu-9y-59-12">
                    <mxGeometry relative="1" as="geometry">
                        <mxPoint x="420" y="530" as="sourcePoint"/>
                        <mxPoint x="230" y="400" as="targetPoint"/>
                        <Array as="points"/>
                    </mxGeometry>
                </mxCell>
                <mxCell id="obrbIRu9S_ZbPu-9y-59-42" value="N" style="resizable=0;html=1;whiteSpace=wrap;align=right;verticalAlign=bottom;" parent="obrbIRu9S_ZbPu-9y-59-41" connectable="0" vertex="1">
                    <mxGeometry x="1" relative="1" as="geometry">
                        <mxPoint y="20" as="offset"/>
                    </mxGeometry>
                </mxCell>
                <mxCell id="2" value="Enrolled" style="shape=associativeEntity;whiteSpace=wrap;html=1;align=center;" parent="1" vertex="1">
                    <mxGeometry x="70" y="440" width="140" height="60" as="geometry"/>
                </mxCell>
                <mxCell id="3" value="aid" style="ellipse;whiteSpace=wrap;html=1;align=center;fontStyle=4;" vertex="1" parent="1">
                    <mxGeometry x="820" y="240" width="90" height="40" as="geometry"/>
                </mxCell>
                <mxCell id="4" value="" style="endArrow=none;html=1;rounded=0;exitX=0.5;exitY=0;exitDx=0;exitDy=0;entryX=0.5;entryY=1;entryDx=0;entryDy=0;" edge="1" parent="1" source="obrbIRu9S_ZbPu-9y-59-4" target="3">
                    <mxGeometry relative="1" as="geometry">
                        <mxPoint x="810" y="340" as="sourcePoint"/>
                        <mxPoint x="970" y="340" as="targetPoint"/>
                    </mxGeometry>
                </mxCell>
            </root>
        </mxGraphModel>
    </diagram>
</mxfile>